HIERARCHY
ROOT Hips
{
	OFFSET -3.958830 18.904000 13.208200
	CHANNELS 6 Xposition Yposition Zposition Zrotation Yrotation Xrotation 
	JOINT LHipJoint
	{
		OFFSET 0.000000 0.000000 0.000000
		CHANNELS 3 Zrotation Yrotation Xrotation
		JOINT LeftUpLeg
		{
			OFFSET 1.800000 -1.400000 0.085000
			CHANNELS 3 Zrotation Yrotation Xrotation
			JOINT LeftLeg
			{
				OFFSET 2.215000 -6.000000 0.000000
				CHANNELS 3 Zrotation Yrotation Xrotation
				JOINT LeftFoot
				{
					OFFSET 2.500000 -6.900000 0.000000
					CHANNELS 3 Zrotation Yrotation Xrotation
					JOINT LeftToeBase
					{
						OFFSET 0.200000 -0.500000 1.950000
						CHANNELS 3 Zrotation Yrotation Xrotation
						End Site
						{
							OFFSET 0.000000 0.000000 0.000000
						}
					}
				}
			}
		}
	}
	JOINT RHipJoint
	{
		OFFSET 0.000000 0.000000 0.000000
		CHANNELS 3 Zrotation Yrotation Xrotation
		JOINT RightUpLeg
		{
			OFFSET -1.800000 -1.400000 0.085000
			CHANNELS 3 Zrotation Yrotation Xrotation
			JOINT RightLeg
			{
				OFFSET -2.215000 -6.000000 0.000000
				CHANNELS 3 Zrotation Yrotation Xrotation
				JOINT RightFoot
				{
					OFFSET -2.500000 -6.900000 0.000000
					CHANNELS 3 Zrotation Yrotation Xrotation
					JOINT RightToeBase
					{
						OFFSET -0.200000 -0.500000 1.950000
						CHANNELS 3 Zrotation Yrotation Xrotation
						End Site
						{
							OFFSET 0.000000 0.000000 0.000000
						}
					}
				}
			}
		}
	}
	JOINT LowerBack
	{
		OFFSET 0.000000 0.000000 0.000000
		CHANNELS 3 Zrotation Yrotation Xrotation
		JOINT Spine
		{
			OFFSET -0.087000 1.940000 -0.288900
			CHANNELS 3 Zrotation Yrotation Xrotation
			JOINT Spine1
			{
				OFFSET 0.000000 1.950000 0.060000
				CHANNELS 3 Zrotation Yrotation Xrotation
				JOINT Neck
				{
					OFFSET 0.000000 0.000000 0.000000
					CHANNELS 3 Zrotation Yrotation Xrotation
					JOINT Neck1
					{
						OFFSET 0.000000 1.600000 0.340000
						CHANNELS 3 Zrotation Yrotation Xrotation
						JOINT Head
						{
							OFFSET 0.000000 1.667000 -0.240000
							CHANNELS 3 Zrotation Yrotation Xrotation
							End Site
							{
								OFFSET 0.000000 0.000000 0.000000
							}
						}
					}
				}
				JOINT LeftShoulder
				{
					OFFSET 0.000000 0.000000 0.000000
					CHANNELS 3 Zrotation Yrotation Xrotation
					JOINT LeftArm
					{
						OFFSET 2.700000 1.550000 -0.730000
						CHANNELS 3 Zrotation Yrotation Xrotation
						JOINT LeftForeArm
						{
							OFFSET 5.450000 0.000000 0.000000
							CHANNELS 3 Zrotation Yrotation Xrotation
							JOINT LeftHand
							{
								OFFSET 3.450000 0.000000 0.000000
								CHANNELS 3 Zrotation Yrotation Xrotation
								JOINT LeftHandIndex1
								{
									OFFSET 0.750000 0.000000 0.000000
									CHANNELS 3 Zrotation Yrotation Xrotation
									End Site
									{
										OFFSET 0.000000 0.000000 0.000000
									}
								}
							}
						}
					}
				}
				JOINT RightShoulder
				{
					OFFSET 0.000000 0.000000 0.000000
					CHANNELS 3 Zrotation Yrotation Xrotation
					JOINT RightArm
					{
						OFFSET -2.700000 1.550000 -0.730000
						CHANNELS 3 Zrotation Yrotation Xrotation
						JOINT RightForeArm
						{
							OFFSET -5.450000 0.000000 0.000000
							CHANNELS 3 Zrotation Yrotation Xrotation
							JOINT RightHand
							{
								OFFSET -3.450000 0.000000 0.000000
								CHANNELS 3 Zrotation Yrotation Xrotation
								JOINT RightHandIndex1
								{
									OFFSET -0.750000 0.000000 0.000000
									CHANNELS 3 Zrotation Yrotation Xrotation
									End Site
									{
										OFFSET 0.000000 0.000000 0.000000
									}
								}
							}
						}
					}
				}
			}
		}
	}
}
MOTION
Frames: 9
Frame Time: 0.016667
0.295920 13.342780 -1.415660 -54.546384 16.452500 -58.314289 -15.577808 13.548713 3.999727 4.075575 -3.235795 -13.888241 -25.636901 16.047969 28.506909 0.569679 8.410374 1.606882 0.255080 0.025470 0.341570 17.879828 -9.859657 2.984356 0.617147 10.540499 -17.327610 -34.292377 13.716549 64.665696 -2.348409 -10.945748 0.845697 -0.042900 0.069940 0.068650 -2.502769 -3.808373 -8.263525 5.186983 1.924212 58.545448 -4.266388 5.758443 22.324977 5.549286 9.104427 -20.170416 13.597955 -6.570433 52.532086 15.536030 -4.918190 -14.027950 -15.594351 -32.381831 13.576377 -26.232709 2.639689 -3.285968 11.945241 -3.080334 -1.359780 -3.582910 2.590650 0.828740 -0.166450 0.256560 0.001770 2.754693 29.217892 14.593506 10.178494 -25.595120 -19.303780 -48.363578 -1.267080 -3.126071 3.236235 -1.497635 -0.238580 0.370050 0.065250 -0.232900 
0.328910 13.319730 -1.433660 -57.750155 16.674467 -60.185163 -15.469638 13.583549 3.744811 2.863823 -3.386345 -14.460198 -19.882280 14.805949 31.652406 0.475475 7.976259 1.736380 0.306630 0.102130 0.353230 17.961711 -9.959013 3.152644 -1.773828 11.326401 -20.955394 -22.279845 5.140987 77.322017 -2.362305 -11.338527 0.703083 -0.018550 0.025610 0.066060 -2.810103 -3.491684 -8.281763 9.558270 -1.683368 59.392992 -6.126718 3.224787 22.076066 6.267204 8.711515 -20.087842 12.756095 -6.117593 53.161750 15.026370 -4.892910 -14.247950 -16.203759 -32.816700 13.882494 -26.267841 3.539082 -3.543152 12.115459 -3.464856 -1.335303 -3.515863 2.664619 0.801320 -0.195560 0.280320 0.028560 2.159892 28.739326 14.027252 10.007061 -23.623972 -20.159578 -50.946811 0.994723 -4.429405 3.167520 -1.608270 -0.189740 0.339740 0.015200 -0.210380 
0.359050 13.310790 -1.447170 -58.771791 16.240787 -61.172442 -15.399674 13.454882 3.490503 1.211217 -3.550473 -15.472305 -14.785946 13.893813 35.467600 0.407492 7.874574 1.768956 0.296260 0.094580 0.307860 18.045338 -9.825543 3.459217 -5.412748 12.432171 -23.787460 -9.505532 -7.003800 82.610058 -2.361482 -11.834996 0.530250 -0.011130 0.072200 0.071920 -3.056874 -3.202532 -8.390065 12.105927 -3.747894 59.417113 -7.662706 2.022174 22.479631 6.737869 7.930111 -19.855737 11.130178 -4.884985 53.866945 15.295250 -5.105770 -13.030350 -17.394641 -32.719343 13.844963 -25.232233 4.103866 -3.388128 12.113307 -3.421953 -1.332667 -3.547148 2.684233 0.770270 -0.170430 0.245620 0.041330 2.622800 28.541476 13.541740 7.649080 -21.395258 -20.326804 -52.701145 2.759897 -5.488753 3.108687 -1.662442 -0.190800 0.347810 0.037640 -0.186960 
0.368110 13.342380 -1.454360 -57.003317 16.670021 -61.645210 -15.480675 13.316038 3.279244 -1.714270 -3.566424 -15.939022 -10.575925 13.227984 38.798290 0.421676 7.854323 1.766466 0.330860 0.134260 0.333130 18.025417 -9.256551 3.958222 -10.993846 14.158960 -26.013717 3.732142 -19.130028 83.575334 -2.695677 -13.288858 0.114072 0.010650 0.037210 0.084940 -2.907919 -3.596585 -8.593228 9.519770 -1.844723 60.386012 -6.994566 2.661952 22.528981 6.639080 8.271994 -20.213123 12.085363 -4.614469 55.409401 14.409920 -4.176260 -11.983800 -18.332015 -33.018204 14.049989 -24.656818 5.095185 -3.534871 12.742891 -3.284110 -1.303925 -3.538701 2.729535 0.765740 -0.179030 0.268590 0.052040 3.561812 29.408301 13.450077 5.559876 -19.851213 -20.687502 -54.219753 4.393691 -6.499572 3.118669 -1.723991 -0.170150 0.317560 0.010620 -0.191950 
0.377280 13.324100 -1.442040 -55.937852 14.362788 -61.157056 -15.423915 12.821051 3.026192 -1.715123 -3.493107 -18.557318 -7.969052 13.421920 42.942544 0.524911 8.259158 1.626267 0.359940 0.186290 0.319590 18.160634 -8.720206 4.664764 -13.889724 16.482178 -27.778192 16.758277 -29.695059 80.887610 -3.122609 -14.805520 -0.237392 0.041980 0.043930 0.073630 -3.164981 -3.203451 -8.883779 11.775075 -2.646314 59.434677 -8.744161 3.155514 22.541372 7.335419 7.476585 -19.773528 10.499867 -3.489189 56.009907 13.608750 -4.184150 -10.310510 -19.569532 -31.793628 13.402245 -23.501361 4.570937 -3.097320 12.619264 -2.606430 -1.161217 -3.556495 2.769550 0.699550 -0.166850 0.242740 0.079720 3.585468 28.884929 12.971746 3.447451 -16.570480 -20.493731 -54.879873 6.299898 -7.515754 3.079323 -1.793726 -0.143160 0.301130 -0.019500 -0.161230 
0.395550 13.247120 -1.443500 -57.089889 12.582183 -60.200256 -15.284869 12.052347 2.938822 -1.344619 -4.463213 -22.942252 -5.376275 13.342042 47.985118 0.571890 8.938825 1.405860 0.288560 0.081310 0.239400 18.385001 -8.249572 5.366327 -17.506737 17.451707 -30.986747 32.105773 -41.347768 75.571106 -3.492853 -15.914427 -0.445452 0.011250 0.126010 0.075190 -3.664845 -2.442477 -9.227219 16.817329 -6.087348 57.184555 -11.811854 2.037484 21.460445 8.029316 6.684909 -19.495906 9.153192 -2.708382 56.885261 12.835130 -4.910800 -7.780730 -20.456556 -30.785159 13.067665 -23.628277 5.004106 -2.908806 12.639566 -2.442019 -1.132292 -3.627094 2.752748 0.681380 -0.114480 0.167200 0.079620 3.366901 27.734995 12.377450 2.390230 -12.358900 -20.055541 -55.804654 8.547144 -8.537623 2.914311 -1.776710 -0.188360 0.320890 0.048330 -0.157070 
0.402930 13.228190 -1.452990 -55.991320 12.491442 -60.022751 -15.307662 11.671787 2.991387 -2.612492 -5.192348 -25.576476 -3.324288 13.567888 52.226169 0.675005 9.595395 1.198201 0.257360 0.036150 0.230820 18.421495 -7.786639 5.775799 -21.780489 17.042888 -32.569672 48.869612 -51.149652 67.876589 -3.555071 -15.555307 -0.323905 0.002220 0.147560 0.066550 -3.667056 -2.536098 -9.461327 16.360896 -5.857837 57.317653 -12.181218 1.990983 20.747857 8.206599 6.337632 -19.449481 8.635726 -2.154685 57.757115 11.662250 -4.410390 -7.238270 -21.182491 -30.469667 13.041464 -23.591939 5.876424 -2.967771 12.774477 -2.787573 -1.142541 -3.651497 2.717530 0.688730 -0.097600 0.144940 0.062860 3.729544 28.112857 11.971264 1.138942 -9.282012 -20.239976 -56.942940 10.326277 -9.601750 2.835516 -1.743729 -0.220190 0.343590 0.078730 -0.170830 
0.392950 13.206850 -1.453300 -53.544998 13.408863 -59.257233 -15.425165 11.481185 3.328623 -5.157889 -6.569247 -28.720085 -2.032420 14.104223 56.208258 0.869496 10.277809 1.001977 0.265090 0.061450 0.207940 18.344595 -7.539586 5.729207 -24.922782 14.423779 -33.315135 70.610164 -57.667612 54.068244 -3.261378 -13.768099 0.136026 0.014180 0.181950 0.078080 -3.376289 -2.982440 -9.600076 12.578070 -3.439922 57.273796 -10.775221 2.670814 20.407718 8.162523 6.011804 -19.207674 8.311972 -1.231001 57.608216 11.517760 -3.660980 -6.492020 -21.200530 -29.921779 12.971813 -24.237871 5.935322 -2.785412 12.540791 -2.535258 -1.046774 -3.677038 2.733574 0.652610 -0.067750 0.129840 0.085670 3.812423 28.794526 11.603050 0.126370 -6.309743 -20.428416 -57.778336 12.079667 -10.839073 2.762967 -1.754672 -0.206210 0.346100 0.075180 -0.147890 
0.387040 13.147820 -1.459710 -49.793277 12.101535 -57.437637 -15.462673 11.229233 3.761294 -4.913887 -7.497698 -34.070157 -3.466019 16.120810 58.727373 1.052087 11.087016 0.746888 0.245450 0.044110 0.164740 18.327161 -7.591606 5.427409 -25.364347 13.027153 -33.998846 87.069702 -57.091108 41.515030 -3.006535 -12.625361 0.428421 0.010410 0.218490 0.093690 -3.280856 -2.830775 -9.670929 10.708575 -1.465368 56.311472 -10.764864 4.472775 20.145331 8.511923 5.169351 -18.975913 6.706625 -0.220167 56.699662 10.791060 -3.544380 -5.050870 -20.688039 -28.760807 12.373353 -25.327489 4.774101 -2.492988 12.314526 -2.151514 -0.976067 -3.728181 2.772441 0.595710 -0.029970 0.086010 0.090330 2.615724 29.382995 11.401996 0.505680 -3.936493 -20.817696 -58.185143 13.107402 -11.660585 2.754492 -1.800307 -0.193550 0.322440 0.094710 -0.126920 
